<?xml version="1.0" encoding="utf-8"?>
<!-- Generator: Adobe Illustrator 22.0.0, SVG Export Plug-In . SVG Version: 6.00 Build 0)  -->
<svg version="1.1" id="Layer_1" xmlns="http://www.w3.org/2000/svg" xmlns:xlink="http://www.w3.org/1999/xlink" x="0px" y="0px"
	 viewBox="0 0 22 22" style="enable-background:new 0 0 22 22;" xml:space="preserve">
<style type="text/css">
	.st0{fill:#00FFFF;}
	.st1{fill:#2A377F;}
</style>
<g>
	<path class="st0" d="M16.7,21.1c-0.2,0-0.5-0.1-0.7-0.2l-4.9-3.6h-0.1L6,20.9c-0.2,0.1-0.4,0.2-0.7,0.2c-0.4,0-0.7-0.2-0.9-0.5
		c-0.2-0.3-0.3-0.6-0.2-1l1.9-5.8c0,0,0-0.1,0-0.1l-4.9-3.6C0.8,9.9,0.6,9.4,0.8,8.9s0.6-0.8,1.1-0.8H8c0,0,0.1,0,0.1-0.1l1.9-5.8
		c0.2-0.5,0.6-0.8,1.1-0.8s0.9,0.3,1.1,0.8l1.9,5.8c0,0,0.1,0.1,0.1,0.1h6.1c0.5,0,0.9,0.3,1.1,0.8s0,1-0.4,1.2l-4.9,3.6
		c0,0-0.1,0.1,0,0.1l1.9,5.8c0.1,0.3,0.1,0.7-0.2,1C17.3,21,17,21.1,16.7,21.1z"/>
	<path class="st1" d="M11,2c0.2,0,0.5,0.1,0.6,0.4l1.9,5.8c0.1,0.3,0.3,0.4,0.6,0.4h6.1c0.6,0,0.8,0.8,0.4,1.1l-4.9,3.6
		c-0.2,0.2-0.3,0.4-0.2,0.7l1.9,5.8c0.1,0.4-0.2,0.8-0.6,0.8c-0.1,0-0.2,0-0.4-0.1l-4.9-3.6c-0.1-0.1-0.2-0.1-0.4-0.1
		s-0.3,0-0.4,0.1l-4.9,3.6c-0.1,0.1-0.2,0.1-0.4,0.1c-0.4,0-0.7-0.4-0.6-0.8L6.7,14c0.1-0.3,0-0.5-0.2-0.7L1.5,9.8
		C1,9.4,1.3,8.6,1.8,8.6H8c0.3,0,0.5-0.2,0.6-0.4l1.9-5.8C10.5,2.1,10.8,2,11,2 M11,1c-0.7,0-1.3,0.4-1.5,1.1L7.7,7.6H1.8
		c-0.7,0-1.3,0.4-1.5,1.1c-0.2,0.7,0,1.4,0.6,1.8L5.6,14l-1.8,5.5C3.7,20,3.7,20.5,4,21c0.3,0.4,0.8,0.7,1.3,0.7
		c0.3,0,0.7-0.1,0.9-0.3l4.7-3.4l4.7,3.4c0.3,0.2,0.6,0.3,0.9,0.3c0.5,0,1-0.3,1.3-0.7c0.3-0.4,0.4-0.9,0.2-1.4L16.4,14l4.7-3.4
		c0.6-0.4,0.8-1.1,0.6-1.8c-0.2-0.7-0.8-1.1-1.5-1.1h-5.8l-1.8-5.5C12.3,1.4,11.7,1,11,1L11,1z"/>
</g>
</svg>
